<mxfile host="app.diagrams.net" modified="2023-06-18T10:02:47.199Z" agent="Mozilla/5.0 (Windows NT 10.0; Win64; x64) AppleWebKit/537.36 (KHTML, like Gecko) Chrome/114.0.0.0 Safari/537.36" etag="RAQobhclR21EtnvjJha6" version="21.3.5" type="github" pages="3">
  <diagram id="_BeNe6PBLxA9ZDKTIeIa" name="佳琦直播间">
    <mxGraphModel dx="223" dy="617" grid="0" gridSize="10" guides="1" tooltips="1" connect="1" arrows="1" fold="1" page="1" pageScale="1" pageWidth="827" pageHeight="1169" math="0" shadow="0">
      <root>
        <mxCell id="0" />
        <mxCell id="1" parent="0" />
        <mxCell id="h_0PNgzTwFsesQxSvOXO-1" value="佳琦选品" style="ellipse;whiteSpace=wrap;html=1;shadow=0;fontFamily=Helvetica;fontSize=30;fontColor=#2F5B7C;align=center;strokeColor=#2F5B7C;strokeWidth=6;fillColor=#FFFFFF;fontStyle=1;gradientColor=none;" vertex="1" parent="1">
          <mxGeometry x="1131" y="430" width="110" height="110" as="geometry" />
        </mxCell>
        <mxCell id="e-SbgNJ8n84q8U7a56c6-1" value="样品" style="ellipse;whiteSpace=wrap;html=1;shadow=0;fontFamily=Helvetica;fontSize=20;fontColor=#FFFFFF;align=center;strokeWidth=3;fillColor=#E85642;strokeColor=none;" vertex="1" parent="1">
          <mxGeometry x="1330" y="330" width="80" height="80" as="geometry" />
        </mxCell>
        <mxCell id="LVkA5_8OpqoGSH2tjEvu-1" value="商品、QC" style="ellipse;whiteSpace=wrap;html=1;shadow=0;fontFamily=Helvetica;fontSize=20;fontColor=#FFFFFF;align=center;strokeWidth=3;fillColor=#F08705;strokeColor=none;gradientColor=none;" vertex="1" parent="1">
          <mxGeometry x="1146" y="270" width="80" height="80" as="geometry" />
        </mxCell>
        <mxCell id="LbBRn7yPlvIt1RKqsnBK-1" value="合同" style="ellipse;whiteSpace=wrap;html=1;shadow=0;fontFamily=Helvetica;fontSize=20;fontColor=#FFFFFF;align=center;strokeWidth=3;fillColor=#1699D3;strokeColor=none;" vertex="1" parent="1">
          <mxGeometry x="970" y="330" width="80" height="80" as="geometry" />
        </mxCell>
        <mxCell id="m4E6Ewjhc1y1OO3AJs2N-1" value="风控" style="ellipse;whiteSpace=wrap;html=1;shadow=0;fontFamily=Helvetica;fontSize=20;fontColor=#FFFFFF;align=center;strokeWidth=3;fillColor=#736ca8;strokeColor=none;" vertex="1" parent="1">
          <mxGeometry x="1330" y="490" width="80" height="80" as="geometry" />
        </mxCell>
        <mxCell id="FmAdzAmxpkacBcnJ7sXE-1" value="财务" style="ellipse;whiteSpace=wrap;html=1;shadow=0;fontFamily=Helvetica;fontSize=20;fontColor=#FFFFFF;align=center;strokeWidth=3;fillColor=#E85642;strokeColor=none;" vertex="1" parent="1">
          <mxGeometry x="1161" y="600" width="80" height="80" as="geometry" />
        </mxCell>
        <mxCell id="6TRJ7fekCq9Qtrk4Zbk8-1" value="基础服务" style="ellipse;whiteSpace=wrap;html=1;shadow=0;fontFamily=Helvetica;fontSize=20;fontColor=#FFFFFF;align=center;strokeWidth=3;fillColor=#736ca8;strokeColor=none;" vertex="1" parent="1">
          <mxGeometry x="970" y="510" width="80" height="80" as="geometry" />
        </mxCell>
        <mxCell id="0mCERKla4IGLxv-UhzHQ-1" style="endArrow=none;strokeWidth=6;strokeColor=#1699D3;html=1;exitX=0;exitY=0;exitDx=0;exitDy=0;entryX=1;entryY=1;entryDx=0;entryDy=0;" edge="1" parent="1" source="h_0PNgzTwFsesQxSvOXO-1" target="LbBRn7yPlvIt1RKqsnBK-1">
          <mxGeometry relative="1" as="geometry">
            <mxPoint x="997" y="719" as="sourcePoint" />
            <mxPoint x="627" y="373" as="targetPoint" />
          </mxGeometry>
        </mxCell>
        <mxCell id="3KnctX27L4nVWSrCjgn8-1" style="endArrow=none;strokeWidth=6;strokeColor=#f08705;html=1;entryX=0.5;entryY=1;entryDx=0;entryDy=0;" edge="1" parent="1" source="h_0PNgzTwFsesQxSvOXO-1" target="LVkA5_8OpqoGSH2tjEvu-1">
          <mxGeometry relative="1" as="geometry">
            <mxPoint x="1113" y="678" as="sourcePoint" />
            <mxPoint x="1156" y="361" as="targetPoint" />
          </mxGeometry>
        </mxCell>
        <mxCell id="2pjFVXQ25x5nOrztArjP-1" value="" style="edgeStyle=none;endArrow=none;strokeWidth=6;strokeColor=#E85642;html=1;exitX=0.5;exitY=1;exitDx=0;exitDy=0;entryX=0.5;entryY=0;entryDx=0;entryDy=0;" edge="1" parent="1" source="h_0PNgzTwFsesQxSvOXO-1" target="FmAdzAmxpkacBcnJ7sXE-1">
          <mxGeometry x="181" y="226.5" width="100" height="100" as="geometry">
            <mxPoint x="995" y="901" as="sourcePoint" />
            <mxPoint x="664" y="1192" as="targetPoint" />
          </mxGeometry>
        </mxCell>
        <mxCell id="x931OudpCFN1Y4Q5zBlC-1" style="endArrow=none;strokeWidth=6;strokeColor=#736ca8;html=1;exitX=1;exitY=0.5;exitDx=0;exitDy=0;entryX=0;entryY=0;entryDx=0;entryDy=0;" edge="1" parent="1" source="h_0PNgzTwFsesQxSvOXO-1" target="m4E6Ewjhc1y1OO3AJs2N-1">
          <mxGeometry relative="1" as="geometry">
            <mxPoint x="1211" y="883" as="sourcePoint" />
            <mxPoint x="1440" y="700" as="targetPoint" />
          </mxGeometry>
        </mxCell>
        <mxCell id="x931OudpCFN1Y4Q5zBlC-2" style="endArrow=none;strokeWidth=6;strokeColor=#736ca8;html=1;exitX=1;exitY=0;exitDx=0;exitDy=0;entryX=0;entryY=0.5;entryDx=0;entryDy=0;" edge="1" parent="1" source="6TRJ7fekCq9Qtrk4Zbk8-1" target="h_0PNgzTwFsesQxSvOXO-1">
          <mxGeometry relative="1" as="geometry">
            <mxPoint x="1251" y="495" as="sourcePoint" />
            <mxPoint x="1342" y="552" as="targetPoint" />
          </mxGeometry>
        </mxCell>
        <mxCell id="x931OudpCFN1Y4Q5zBlC-3" value="" style="edgeStyle=none;endArrow=none;strokeWidth=6;strokeColor=#E85642;html=1;exitX=0;exitY=0.5;exitDx=0;exitDy=0;entryX=1;entryY=0;entryDx=0;entryDy=0;" edge="1" parent="1" source="e-SbgNJ8n84q8U7a56c6-1" target="h_0PNgzTwFsesQxSvOXO-1">
          <mxGeometry x="191" y="236.5" width="100" height="100" as="geometry">
            <mxPoint x="1196" y="550" as="sourcePoint" />
            <mxPoint x="1211" y="610" as="targetPoint" />
          </mxGeometry>
        </mxCell>
      </root>
    </mxGraphModel>
  </diagram>
  <diagram id="FWK3_RfNbXCfg6W_qxpB" name="各直播间单独选品系统">
    <mxGraphModel dx="223" dy="617" grid="0" gridSize="10" guides="1" tooltips="1" connect="1" arrows="1" fold="1" page="1" pageScale="1" pageWidth="827" pageHeight="1169" math="0" shadow="0">
      <root>
        <mxCell id="0" />
        <mxCell id="1" parent="0" />
        <mxCell id="u5ua_OaegspMJcCAjfs4-1" value="佳琦、所有女生、所有衣橱。。。" style="ellipse;whiteSpace=wrap;html=1;shadow=0;fontFamily=Helvetica;fontSize=15;fontColor=#2F5B7C;align=center;strokeColor=#2F5B7C;strokeWidth=6;fillColor=#FFFFFF;fontStyle=1;gradientColor=none;" vertex="1" parent="1">
          <mxGeometry x="1131" y="430" width="110" height="110" as="geometry" />
        </mxCell>
        <mxCell id="u5ua_OaegspMJcCAjfs4-2" value="样品" style="ellipse;whiteSpace=wrap;html=1;shadow=0;fontFamily=Helvetica;fontSize=20;fontColor=#FFFFFF;align=center;strokeWidth=3;fillColor=#E85642;strokeColor=none;" vertex="1" parent="1">
          <mxGeometry x="1330" y="330" width="80" height="80" as="geometry" />
        </mxCell>
        <mxCell id="u5ua_OaegspMJcCAjfs4-3" value="商品、QC" style="ellipse;whiteSpace=wrap;html=1;shadow=0;fontFamily=Helvetica;fontSize=20;fontColor=#FFFFFF;align=center;strokeWidth=3;fillColor=#F08705;strokeColor=none;gradientColor=none;" vertex="1" parent="1">
          <mxGeometry x="1146" y="270" width="80" height="80" as="geometry" />
        </mxCell>
        <mxCell id="u5ua_OaegspMJcCAjfs4-4" value="合同" style="ellipse;whiteSpace=wrap;html=1;shadow=0;fontFamily=Helvetica;fontSize=20;fontColor=#FFFFFF;align=center;strokeWidth=3;fillColor=#1699D3;strokeColor=none;" vertex="1" parent="1">
          <mxGeometry x="970" y="330" width="80" height="80" as="geometry" />
        </mxCell>
        <mxCell id="u5ua_OaegspMJcCAjfs4-5" value="风控" style="ellipse;whiteSpace=wrap;html=1;shadow=0;fontFamily=Helvetica;fontSize=20;fontColor=#FFFFFF;align=center;strokeWidth=3;fillColor=#736ca8;strokeColor=none;" vertex="1" parent="1">
          <mxGeometry x="1330" y="490" width="80" height="80" as="geometry" />
        </mxCell>
        <mxCell id="u5ua_OaegspMJcCAjfs4-6" value="财务" style="ellipse;whiteSpace=wrap;html=1;shadow=0;fontFamily=Helvetica;fontSize=20;fontColor=#FFFFFF;align=center;strokeWidth=3;fillColor=#E85642;strokeColor=none;" vertex="1" parent="1">
          <mxGeometry x="1161" y="600" width="80" height="80" as="geometry" />
        </mxCell>
        <mxCell id="u5ua_OaegspMJcCAjfs4-7" value="基础服务" style="ellipse;whiteSpace=wrap;html=1;shadow=0;fontFamily=Helvetica;fontSize=20;fontColor=#FFFFFF;align=center;strokeWidth=3;fillColor=#736ca8;strokeColor=none;" vertex="1" parent="1">
          <mxGeometry x="970" y="510" width="80" height="80" as="geometry" />
        </mxCell>
        <mxCell id="u5ua_OaegspMJcCAjfs4-8" style="endArrow=none;strokeWidth=6;strokeColor=#1699D3;html=1;exitX=0;exitY=0;exitDx=0;exitDy=0;entryX=1;entryY=1;entryDx=0;entryDy=0;" edge="1" parent="1" source="u5ua_OaegspMJcCAjfs4-1" target="u5ua_OaegspMJcCAjfs4-4">
          <mxGeometry relative="1" as="geometry">
            <mxPoint x="997" y="719" as="sourcePoint" />
            <mxPoint x="627" y="373" as="targetPoint" />
          </mxGeometry>
        </mxCell>
        <mxCell id="u5ua_OaegspMJcCAjfs4-9" style="endArrow=none;strokeWidth=6;strokeColor=#f08705;html=1;entryX=0.5;entryY=1;entryDx=0;entryDy=0;" edge="1" parent="1" source="u5ua_OaegspMJcCAjfs4-1" target="u5ua_OaegspMJcCAjfs4-3">
          <mxGeometry relative="1" as="geometry">
            <mxPoint x="1113" y="678" as="sourcePoint" />
            <mxPoint x="1156" y="361" as="targetPoint" />
          </mxGeometry>
        </mxCell>
        <mxCell id="u5ua_OaegspMJcCAjfs4-10" value="" style="edgeStyle=none;endArrow=none;strokeWidth=6;strokeColor=#E85642;html=1;exitX=0.5;exitY=1;exitDx=0;exitDy=0;entryX=0.5;entryY=0;entryDx=0;entryDy=0;" edge="1" parent="1" source="u5ua_OaegspMJcCAjfs4-1" target="u5ua_OaegspMJcCAjfs4-6">
          <mxGeometry x="181" y="226.5" width="100" height="100" as="geometry">
            <mxPoint x="995" y="901" as="sourcePoint" />
            <mxPoint x="664" y="1192" as="targetPoint" />
          </mxGeometry>
        </mxCell>
        <mxCell id="u5ua_OaegspMJcCAjfs4-11" style="endArrow=none;strokeWidth=6;strokeColor=#736ca8;html=1;exitX=1;exitY=0.5;exitDx=0;exitDy=0;entryX=0;entryY=0;entryDx=0;entryDy=0;" edge="1" parent="1" source="u5ua_OaegspMJcCAjfs4-1" target="u5ua_OaegspMJcCAjfs4-5">
          <mxGeometry relative="1" as="geometry">
            <mxPoint x="1211" y="883" as="sourcePoint" />
            <mxPoint x="1440" y="700" as="targetPoint" />
          </mxGeometry>
        </mxCell>
        <mxCell id="u5ua_OaegspMJcCAjfs4-12" style="endArrow=none;strokeWidth=6;strokeColor=#736ca8;html=1;exitX=1;exitY=0;exitDx=0;exitDy=0;entryX=0;entryY=0.5;entryDx=0;entryDy=0;" edge="1" parent="1" source="u5ua_OaegspMJcCAjfs4-7" target="u5ua_OaegspMJcCAjfs4-1">
          <mxGeometry relative="1" as="geometry">
            <mxPoint x="1251" y="495" as="sourcePoint" />
            <mxPoint x="1342" y="552" as="targetPoint" />
          </mxGeometry>
        </mxCell>
        <mxCell id="u5ua_OaegspMJcCAjfs4-13" value="" style="edgeStyle=none;endArrow=none;strokeWidth=6;strokeColor=#E85642;html=1;exitX=0;exitY=0.5;exitDx=0;exitDy=0;entryX=1;entryY=0;entryDx=0;entryDy=0;" edge="1" parent="1" source="u5ua_OaegspMJcCAjfs4-2" target="u5ua_OaegspMJcCAjfs4-1">
          <mxGeometry x="191" y="236.5" width="100" height="100" as="geometry">
            <mxPoint x="1196" y="550" as="sourcePoint" />
            <mxPoint x="1211" y="610" as="targetPoint" />
          </mxGeometry>
        </mxCell>
        <mxCell id="u5ua_OaegspMJcCAjfs4-14" value="兼容佳琦、所有女生、所有衣橱。。。" style="rounded=1;fillColor=#f08e81;strokeColor=none;strokeWidth=3;shadow=0;html=1;fontColor=#FFFFFF;whiteSpace=wrap;" vertex="1" parent="1">
          <mxGeometry x="1460" y="270" width="120" height="40" as="geometry" />
        </mxCell>
        <mxCell id="u5ua_OaegspMJcCAjfs4-15" value="" style="edgeStyle=none;endArrow=none;strokeWidth=3;strokeColor=#F08E81;html=1;exitX=1;exitY=0;exitDx=0;exitDy=0;entryX=0;entryY=1;entryDx=0;entryDy=0;" edge="1" parent="1" source="u5ua_OaegspMJcCAjfs4-2" target="u5ua_OaegspMJcCAjfs4-14">
          <mxGeometry x="31" y="106.5" width="100" height="100" as="geometry">
            <mxPoint x="1818" y="397" as="sourcePoint" />
            <mxPoint x="1919" y="362" as="targetPoint" />
          </mxGeometry>
        </mxCell>
        <mxCell id="u5ua_OaegspMJcCAjfs4-16" value="兼容佳琦、所有女生、所有衣橱。。。" style="rounded=1;fillColor=#f5af58;strokeColor=none;strokeWidth=3;shadow=0;html=1;fontColor=#FFFFFF;whiteSpace=wrap;" vertex="1" parent="1">
          <mxGeometry x="1210" y="191.5" width="120" height="40" as="geometry" />
        </mxCell>
        <mxCell id="u5ua_OaegspMJcCAjfs4-17" value="" style="edgeStyle=none;endArrow=none;strokeWidth=3;strokeColor=#F5AF58;html=1;exitX=0;exitY=1;exitDx=0;exitDy=0;" edge="1" parent="1" source="u5ua_OaegspMJcCAjfs4-16" target="u5ua_OaegspMJcCAjfs4-3">
          <mxGeometry x="-25" y="-188.5" width="100" height="100" as="geometry">
            <mxPoint x="1197.5" y="100" as="sourcePoint" />
            <mxPoint x="75" y="-188.5" as="targetPoint" />
          </mxGeometry>
        </mxCell>
        <mxCell id="u5ua_OaegspMJcCAjfs4-18" value="&lt;div style=&quot;&quot;&gt;&lt;span style=&quot;font-family: &amp;quot;Courier New&amp;quot;; background-color: initial;&quot;&gt;兼容佳琦、所有女生、所有衣橱。。。&lt;/span&gt;&lt;/div&gt;" style="rounded=1;fillColor=#64BBE2;strokeColor=none;strokeWidth=3;shadow=0;html=1;fontColor=#FFFFFF;align=center;labelPosition=center;verticalLabelPosition=middle;verticalAlign=middle;whiteSpace=wrap;" vertex="1" parent="1">
          <mxGeometry x="910" y="231.5" width="120" height="40" as="geometry" />
        </mxCell>
        <mxCell id="u5ua_OaegspMJcCAjfs4-19" value="" style="edgeStyle=none;endArrow=none;strokeWidth=3;strokeColor=#64BBE2;html=1;exitX=0.5;exitY=0;exitDx=0;exitDy=0;entryX=0.5;entryY=1;entryDx=0;entryDy=0;" edge="1" parent="1" source="u5ua_OaegspMJcCAjfs4-4" target="u5ua_OaegspMJcCAjfs4-18">
          <mxGeometry x="-960" y="-558.5" width="100" height="100" as="geometry">
            <mxPoint x="1025" y="160" as="sourcePoint" />
            <mxPoint x="980" y="260" as="targetPoint" />
          </mxGeometry>
        </mxCell>
        <mxCell id="u5ua_OaegspMJcCAjfs4-20" value="兼容佳琦、所有女生、所有衣橱。。。" style="rounded=1;fillColor=#a29dc5;strokeColor=none;strokeWidth=3;shadow=0;html=1;fontColor=#FFFFFF;whiteSpace=wrap;" vertex="1" parent="1">
          <mxGeometry x="1480" y="548" width="120" height="40" as="geometry" />
        </mxCell>
        <mxCell id="u5ua_OaegspMJcCAjfs4-21" value="" style="edgeStyle=none;endArrow=none;strokeWidth=3;strokeColor=#A29DC5;html=1;exitX=1;exitY=0;exitDx=0;exitDy=0;" edge="1" parent="1" source="u5ua_OaegspMJcCAjfs4-5" target="u5ua_OaegspMJcCAjfs4-20">
          <mxGeometry x="-1495" y="-974.5" width="100" height="100" as="geometry">
            <mxPoint x="1491" y="621" as="sourcePoint" />
            <mxPoint x="-1395" y="-974.5" as="targetPoint" />
          </mxGeometry>
        </mxCell>
        <mxCell id="u5ua_OaegspMJcCAjfs4-22" value="兼容佳琦、所有女生、所有衣橱" style="rounded=1;fillColor=#f08e81;strokeColor=none;strokeWidth=3;shadow=0;html=1;fontColor=#FFFFFF;whiteSpace=wrap;" vertex="1" parent="1">
          <mxGeometry x="1210" y="730" width="120" height="40" as="geometry" />
        </mxCell>
        <mxCell id="u5ua_OaegspMJcCAjfs4-23" value="" style="edgeStyle=none;endArrow=none;strokeWidth=3;strokeColor=#F08E81;html=1;exitX=0.5;exitY=1;exitDx=0;exitDy=0;entryX=0;entryY=0;entryDx=0;entryDy=0;" edge="1" parent="1" source="u5ua_OaegspMJcCAjfs4-6" target="u5ua_OaegspMJcCAjfs4-22">
          <mxGeometry x="-193" y="556.5" width="100" height="100" as="geometry">
            <mxPoint x="1170" y="730" as="sourcePoint" />
            <mxPoint x="1695" y="812" as="targetPoint" />
          </mxGeometry>
        </mxCell>
      </root>
    </mxGraphModel>
  </diagram>
  <diagram id="1X9ytolUngRCOzCR8Goa" name="通用选品">
    <mxGraphModel dx="223" dy="617" grid="0" gridSize="10" guides="1" tooltips="1" connect="1" arrows="1" fold="1" page="1" pageScale="1" pageWidth="827" pageHeight="1169" math="0" shadow="0">
      <root>
        <mxCell id="0" />
        <mxCell id="1" parent="0" />
        <mxCell id="4OA8Ue_L2RbSrvTpMZKX-1" value="佳琦、通用选品" style="ellipse;whiteSpace=wrap;html=1;shadow=0;fontFamily=Helvetica;fontSize=20;fontColor=#2F5B7C;align=center;strokeColor=#2F5B7C;strokeWidth=6;fillColor=#FFFFFF;fontStyle=1;gradientColor=none;" vertex="1" parent="1">
          <mxGeometry x="1131" y="430" width="110" height="110" as="geometry" />
        </mxCell>
        <mxCell id="4OA8Ue_L2RbSrvTpMZKX-2" value="样品" style="ellipse;whiteSpace=wrap;html=1;shadow=0;fontFamily=Helvetica;fontSize=20;fontColor=#FFFFFF;align=center;strokeWidth=3;fillColor=#E85642;strokeColor=none;" vertex="1" parent="1">
          <mxGeometry x="1330" y="330" width="80" height="80" as="geometry" />
        </mxCell>
        <mxCell id="4OA8Ue_L2RbSrvTpMZKX-3" value="商品、QC" style="ellipse;whiteSpace=wrap;html=1;shadow=0;fontFamily=Helvetica;fontSize=20;fontColor=#FFFFFF;align=center;strokeWidth=3;fillColor=#F08705;strokeColor=none;gradientColor=none;" vertex="1" parent="1">
          <mxGeometry x="1146" y="270" width="80" height="80" as="geometry" />
        </mxCell>
        <mxCell id="4OA8Ue_L2RbSrvTpMZKX-4" value="合同" style="ellipse;whiteSpace=wrap;html=1;shadow=0;fontFamily=Helvetica;fontSize=20;fontColor=#FFFFFF;align=center;strokeWidth=3;fillColor=#1699D3;strokeColor=none;" vertex="1" parent="1">
          <mxGeometry x="970" y="330" width="80" height="80" as="geometry" />
        </mxCell>
        <mxCell id="4OA8Ue_L2RbSrvTpMZKX-5" value="风控" style="ellipse;whiteSpace=wrap;html=1;shadow=0;fontFamily=Helvetica;fontSize=20;fontColor=#FFFFFF;align=center;strokeWidth=3;fillColor=#736ca8;strokeColor=none;" vertex="1" parent="1">
          <mxGeometry x="1330" y="490" width="80" height="80" as="geometry" />
        </mxCell>
        <mxCell id="4OA8Ue_L2RbSrvTpMZKX-6" value="财务" style="ellipse;whiteSpace=wrap;html=1;shadow=0;fontFamily=Helvetica;fontSize=20;fontColor=#FFFFFF;align=center;strokeWidth=3;fillColor=#E85642;strokeColor=none;" vertex="1" parent="1">
          <mxGeometry x="1161" y="600" width="80" height="80" as="geometry" />
        </mxCell>
        <mxCell id="4OA8Ue_L2RbSrvTpMZKX-7" value="基础服务" style="ellipse;whiteSpace=wrap;html=1;shadow=0;fontFamily=Helvetica;fontSize=20;fontColor=#FFFFFF;align=center;strokeWidth=3;fillColor=#736ca8;strokeColor=none;" vertex="1" parent="1">
          <mxGeometry x="970" y="510" width="80" height="80" as="geometry" />
        </mxCell>
        <mxCell id="4OA8Ue_L2RbSrvTpMZKX-8" style="endArrow=none;strokeWidth=6;strokeColor=#1699D3;html=1;exitX=0;exitY=0;exitDx=0;exitDy=0;entryX=1;entryY=1;entryDx=0;entryDy=0;" edge="1" parent="1" source="4OA8Ue_L2RbSrvTpMZKX-1" target="4OA8Ue_L2RbSrvTpMZKX-4">
          <mxGeometry relative="1" as="geometry">
            <mxPoint x="997" y="719" as="sourcePoint" />
            <mxPoint x="627" y="373" as="targetPoint" />
          </mxGeometry>
        </mxCell>
        <mxCell id="4OA8Ue_L2RbSrvTpMZKX-9" style="endArrow=none;strokeWidth=6;strokeColor=#f08705;html=1;entryX=0.5;entryY=1;entryDx=0;entryDy=0;" edge="1" parent="1" source="4OA8Ue_L2RbSrvTpMZKX-1" target="4OA8Ue_L2RbSrvTpMZKX-3">
          <mxGeometry relative="1" as="geometry">
            <mxPoint x="1113" y="678" as="sourcePoint" />
            <mxPoint x="1156" y="361" as="targetPoint" />
          </mxGeometry>
        </mxCell>
        <mxCell id="4OA8Ue_L2RbSrvTpMZKX-10" value="" style="edgeStyle=none;endArrow=none;strokeWidth=6;strokeColor=#E85642;html=1;exitX=0.5;exitY=1;exitDx=0;exitDy=0;entryX=0.5;entryY=0;entryDx=0;entryDy=0;" edge="1" parent="1" source="4OA8Ue_L2RbSrvTpMZKX-1" target="4OA8Ue_L2RbSrvTpMZKX-6">
          <mxGeometry x="181" y="226.5" width="100" height="100" as="geometry">
            <mxPoint x="995" y="901" as="sourcePoint" />
            <mxPoint x="664" y="1192" as="targetPoint" />
          </mxGeometry>
        </mxCell>
        <mxCell id="4OA8Ue_L2RbSrvTpMZKX-11" style="endArrow=none;strokeWidth=6;strokeColor=#736ca8;html=1;exitX=1;exitY=0.5;exitDx=0;exitDy=0;entryX=0;entryY=0;entryDx=0;entryDy=0;" edge="1" parent="1" source="4OA8Ue_L2RbSrvTpMZKX-1" target="4OA8Ue_L2RbSrvTpMZKX-5">
          <mxGeometry relative="1" as="geometry">
            <mxPoint x="1211" y="883" as="sourcePoint" />
            <mxPoint x="1440" y="700" as="targetPoint" />
          </mxGeometry>
        </mxCell>
        <mxCell id="4OA8Ue_L2RbSrvTpMZKX-12" style="endArrow=none;strokeWidth=6;strokeColor=#736ca8;html=1;exitX=1;exitY=0;exitDx=0;exitDy=0;entryX=0;entryY=0.5;entryDx=0;entryDy=0;" edge="1" parent="1" source="4OA8Ue_L2RbSrvTpMZKX-7" target="4OA8Ue_L2RbSrvTpMZKX-1">
          <mxGeometry relative="1" as="geometry">
            <mxPoint x="1251" y="495" as="sourcePoint" />
            <mxPoint x="1342" y="552" as="targetPoint" />
          </mxGeometry>
        </mxCell>
        <mxCell id="4OA8Ue_L2RbSrvTpMZKX-13" value="" style="edgeStyle=none;endArrow=none;strokeWidth=6;strokeColor=#E85642;html=1;exitX=0;exitY=0.5;exitDx=0;exitDy=0;entryX=1;entryY=0;entryDx=0;entryDy=0;" edge="1" parent="1" source="4OA8Ue_L2RbSrvTpMZKX-2" target="4OA8Ue_L2RbSrvTpMZKX-1">
          <mxGeometry x="191" y="236.5" width="100" height="100" as="geometry">
            <mxPoint x="1196" y="550" as="sourcePoint" />
            <mxPoint x="1211" y="610" as="targetPoint" />
          </mxGeometry>
        </mxCell>
        <mxCell id="4OA8Ue_L2RbSrvTpMZKX-14" value="&lt;div style=&quot;border-color: var(--border-color);&quot;&gt;兼容佳琦、&lt;/div&gt;通用" style="rounded=1;fillColor=#f08e81;strokeColor=none;strokeWidth=3;shadow=0;html=1;fontColor=#FFFFFF;whiteSpace=wrap;" vertex="1" parent="1">
          <mxGeometry x="1460" y="270" width="120" height="40" as="geometry" />
        </mxCell>
        <mxCell id="4OA8Ue_L2RbSrvTpMZKX-15" value="" style="edgeStyle=none;endArrow=none;strokeWidth=3;strokeColor=#F08E81;html=1;exitX=1;exitY=0;exitDx=0;exitDy=0;entryX=0;entryY=1;entryDx=0;entryDy=0;" edge="1" parent="1" source="4OA8Ue_L2RbSrvTpMZKX-2" target="4OA8Ue_L2RbSrvTpMZKX-14">
          <mxGeometry x="31" y="106.5" width="100" height="100" as="geometry">
            <mxPoint x="1818" y="397" as="sourcePoint" />
            <mxPoint x="1919" y="362" as="targetPoint" />
          </mxGeometry>
        </mxCell>
        <mxCell id="4OA8Ue_L2RbSrvTpMZKX-16" value="&lt;div style=&quot;border-color: var(--border-color);&quot;&gt;兼容佳琦、&lt;/div&gt;通用" style="rounded=1;fillColor=#f5af58;strokeColor=none;strokeWidth=3;shadow=0;html=1;fontColor=#FFFFFF;whiteSpace=wrap;" vertex="1" parent="1">
          <mxGeometry x="1210" y="191.5" width="120" height="40" as="geometry" />
        </mxCell>
        <mxCell id="4OA8Ue_L2RbSrvTpMZKX-17" value="" style="edgeStyle=none;endArrow=none;strokeWidth=3;strokeColor=#F5AF58;html=1;exitX=0;exitY=1;exitDx=0;exitDy=0;" edge="1" parent="1" source="4OA8Ue_L2RbSrvTpMZKX-16" target="4OA8Ue_L2RbSrvTpMZKX-3">
          <mxGeometry x="-25" y="-188.5" width="100" height="100" as="geometry">
            <mxPoint x="1197.5" y="100" as="sourcePoint" />
            <mxPoint x="75" y="-188.5" as="targetPoint" />
          </mxGeometry>
        </mxCell>
        <mxCell id="4OA8Ue_L2RbSrvTpMZKX-18" value="&lt;div style=&quot;&quot;&gt;&lt;span style=&quot;font-family: &amp;quot;Courier New&amp;quot;; background-color: initial;&quot;&gt;兼容佳琦、&lt;/span&gt;&lt;/div&gt;通用" style="rounded=1;fillColor=#64BBE2;strokeColor=none;strokeWidth=3;shadow=0;html=1;fontColor=#FFFFFF;align=center;labelPosition=center;verticalLabelPosition=middle;verticalAlign=middle;whiteSpace=wrap;" vertex="1" parent="1">
          <mxGeometry x="910" y="231.5" width="120" height="40" as="geometry" />
        </mxCell>
        <mxCell id="4OA8Ue_L2RbSrvTpMZKX-19" value="" style="edgeStyle=none;endArrow=none;strokeWidth=3;strokeColor=#64BBE2;html=1;exitX=0.5;exitY=0;exitDx=0;exitDy=0;entryX=0.5;entryY=1;entryDx=0;entryDy=0;" edge="1" parent="1" source="4OA8Ue_L2RbSrvTpMZKX-4" target="4OA8Ue_L2RbSrvTpMZKX-18">
          <mxGeometry x="-960" y="-558.5" width="100" height="100" as="geometry">
            <mxPoint x="1025" y="160" as="sourcePoint" />
            <mxPoint x="980" y="260" as="targetPoint" />
          </mxGeometry>
        </mxCell>
        <mxCell id="4OA8Ue_L2RbSrvTpMZKX-20" value="&lt;div style=&quot;border-color: var(--border-color);&quot;&gt;兼容佳琦、&lt;/div&gt;通用" style="rounded=1;fillColor=#a29dc5;strokeColor=none;strokeWidth=3;shadow=0;html=1;fontColor=#FFFFFF;whiteSpace=wrap;" vertex="1" parent="1">
          <mxGeometry x="1480" y="548" width="120" height="40" as="geometry" />
        </mxCell>
        <mxCell id="4OA8Ue_L2RbSrvTpMZKX-21" value="" style="edgeStyle=none;endArrow=none;strokeWidth=3;strokeColor=#A29DC5;html=1;exitX=1;exitY=0;exitDx=0;exitDy=0;" edge="1" parent="1" source="4OA8Ue_L2RbSrvTpMZKX-5" target="4OA8Ue_L2RbSrvTpMZKX-20">
          <mxGeometry x="-1495" y="-974.5" width="100" height="100" as="geometry">
            <mxPoint x="1491" y="621" as="sourcePoint" />
            <mxPoint x="-1395" y="-974.5" as="targetPoint" />
          </mxGeometry>
        </mxCell>
        <mxCell id="4OA8Ue_L2RbSrvTpMZKX-22" value="&lt;div style=&quot;border-color: var(--border-color);&quot;&gt;兼容佳琦、&lt;/div&gt;通用" style="rounded=1;fillColor=#f08e81;strokeColor=none;strokeWidth=3;shadow=0;html=1;fontColor=#FFFFFF;whiteSpace=wrap;" vertex="1" parent="1">
          <mxGeometry x="1210" y="730" width="120" height="40" as="geometry" />
        </mxCell>
        <mxCell id="4OA8Ue_L2RbSrvTpMZKX-23" value="" style="edgeStyle=none;endArrow=none;strokeWidth=3;strokeColor=#F08E81;html=1;exitX=0.5;exitY=1;exitDx=0;exitDy=0;entryX=0;entryY=0;entryDx=0;entryDy=0;" edge="1" parent="1" source="4OA8Ue_L2RbSrvTpMZKX-6" target="4OA8Ue_L2RbSrvTpMZKX-22">
          <mxGeometry x="-193" y="556.5" width="100" height="100" as="geometry">
            <mxPoint x="1170" y="730" as="sourcePoint" />
            <mxPoint x="1695" y="812" as="targetPoint" />
          </mxGeometry>
        </mxCell>
      </root>
    </mxGraphModel>
  </diagram>
</mxfile>
